<!DOCTYPE svg PUBLIC "-//W3C//DTD SVG 20010904//EN" "http://www.w3.org/TR/2001/REC-SVG-20010904/DTD/svg10.dtd">
<svg version="1.0" xmlns="http://www.w3.org/2000/svg" width="24px" height="24px" viewBox="0 0 480 480" preserveAspectRatio="xMidYMid meet">
<g id="layer101" fill="#F92672" stroke="none">
 <path d="M135 461 c-87 -40 -135 -120 -135 -223 1 -142 97 -238 240 -238 144 0 240 96 240 240 0 104 -53 187 -142 224 -52 22 -153 20 -203 -3z"/>
 </g>
<g id="layer102" fill="#F8F8F2" stroke="none">
 <path d="M171 307 c-8 -11 -5 -19 14 -37 l25 -24 -25 -26 c-23 -24 -24 -28 -10 -40 13 -11 20 -9 40 10 l25 23 25 -23 c23 -21 27 -22 40 -9 14 13 13 18 -10 39 l-25 24 21 23 c18 19 20 25 9 38 -12 14 -15 13 -37 -6 l-23 -22 -23 21 c-27 26 -31 26 -46 9z"/>
 </g>

</svg>